<svg xmlns="http://www.w3.org/2000/svg" xmlns:xlink="http://www.w3.org/1999/xlink" width="173" zoomAndPan="magnify" viewBox="0 0 129.75 30.000001" height="40" preserveAspectRatio="xMidYMid meet" version="1.0"><defs><g/></defs><g fill="#ffffff" fill-opacity="1"><g transform="translate(2.264432, 21.027431)"><g><path d="M 8.390625 -11.78125 C 9.753906 -11.78125 10.84375 -11.335938 11.65625 -10.453125 C 12.46875 -9.566406 12.875 -8.351562 12.875 -6.8125 L 12.875 0 L 9.328125 0 L 9.328125 -6.328125 C 9.328125 -7.109375 9.125 -7.710938 8.71875 -8.140625 C 8.320312 -8.566406 7.78125 -8.78125 7.09375 -8.78125 C 6.414062 -8.78125 5.875 -8.566406 5.46875 -8.140625 C 5.0625 -7.710938 4.859375 -7.109375 4.859375 -6.328125 L 4.859375 0 L 1.296875 0 L 1.296875 -11.640625 L 4.859375 -11.640625 L 4.859375 -10.109375 C 5.222656 -10.617188 5.710938 -11.023438 6.328125 -11.328125 C 6.941406 -11.628906 7.628906 -11.78125 8.390625 -11.78125 Z M 8.390625 -11.78125 "/></g></g></g><g fill="#ffffff" fill-opacity="1"><g transform="translate(14.019051, 21.027431)"><g><path d="M 0.578125 -5.84375 C 0.578125 -7.039062 0.800781 -8.09375 1.25 -9 C 1.707031 -9.90625 2.328125 -10.597656 3.109375 -11.078125 C 3.890625 -11.566406 4.757812 -11.8125 5.71875 -11.8125 C 6.539062 -11.8125 7.257812 -11.644531 7.875 -11.3125 C 8.5 -10.976562 8.976562 -10.539062 9.3125 -10 L 9.3125 -11.640625 L 12.875 -11.640625 L 12.875 0 L 9.3125 0 L 9.3125 -1.65625 C 8.957031 -1.101562 8.472656 -0.660156 7.859375 -0.328125 C 7.242188 0.00390625 6.523438 0.171875 5.703125 0.171875 C 4.753906 0.171875 3.890625 -0.0703125 3.109375 -0.5625 C 2.328125 -1.0625 1.707031 -1.765625 1.25 -2.671875 C 0.800781 -3.585938 0.578125 -4.644531 0.578125 -5.84375 Z M 9.3125 -5.828125 C 9.3125 -6.710938 9.0625 -7.410156 8.5625 -7.921875 C 8.070312 -8.441406 7.472656 -8.703125 6.765625 -8.703125 C 6.054688 -8.703125 5.453125 -8.445312 4.953125 -7.9375 C 4.460938 -7.4375 4.21875 -6.738281 4.21875 -5.84375 C 4.21875 -4.957031 4.460938 -4.25 4.953125 -3.71875 C 5.453125 -3.195312 6.054688 -2.9375 6.765625 -2.9375 C 7.472656 -2.9375 8.070312 -3.191406 8.5625 -3.703125 C 9.0625 -4.222656 9.3125 -4.929688 9.3125 -5.828125 Z M 9.3125 -5.828125 "/></g></g></g><g fill="#ffffff" fill-opacity="1"><g transform="translate(25.878069, 21.027431)"><g><path d="M 4.859375 -10 C 5.210938 -10.539062 5.691406 -10.976562 6.296875 -11.3125 C 6.910156 -11.644531 7.628906 -11.8125 8.453125 -11.8125 C 9.410156 -11.8125 10.28125 -11.566406 11.0625 -11.078125 C 11.84375 -10.597656 12.457031 -9.90625 12.90625 -9 C 13.363281 -8.09375 13.59375 -7.039062 13.59375 -5.84375 C 13.59375 -4.644531 13.363281 -3.585938 12.90625 -2.671875 C 12.457031 -1.765625 11.84375 -1.0625 11.0625 -0.5625 C 10.28125 -0.0703125 9.410156 0.171875 8.453125 0.171875 C 7.648438 0.171875 6.9375 0.00390625 6.3125 -0.328125 C 5.695312 -0.660156 5.210938 -1.09375 4.859375 -1.625 L 4.859375 5.546875 L 1.296875 5.546875 L 1.296875 -11.640625 L 4.859375 -11.640625 Z M 9.953125 -5.84375 C 9.953125 -6.738281 9.703125 -7.4375 9.203125 -7.9375 C 8.710938 -8.445312 8.109375 -8.703125 7.390625 -8.703125 C 6.679688 -8.703125 6.078125 -8.441406 5.578125 -7.921875 C 5.085938 -7.410156 4.84375 -6.710938 4.84375 -5.828125 C 4.84375 -4.929688 5.085938 -4.222656 5.578125 -3.703125 C 6.078125 -3.191406 6.679688 -2.9375 7.390625 -2.9375 C 8.097656 -2.9375 8.703125 -3.195312 9.203125 -3.71875 C 9.703125 -4.25 9.953125 -4.957031 9.953125 -5.84375 Z M 9.953125 -5.84375 "/></g></g></g><g fill="#ffffff" fill-opacity="1"><g transform="translate(37.737087, 21.027431)"><g><path d="M 2.109375 -14.65625 L 5.765625 -14.65625 L 3.421875 -9.0625 L 1.015625 -9.0625 Z M 2.109375 -14.65625 "/></g></g></g><g fill="#ffffff" fill-opacity="1"><g transform="translate(41.975224, 21.027431)"><g><path d="M 6.03125 0.171875 C 5.019531 0.171875 4.113281 0 3.3125 -0.34375 C 2.519531 -0.695312 1.894531 -1.175781 1.4375 -1.78125 C 0.976562 -2.382812 0.722656 -3.0625 0.671875 -3.8125 L 4.203125 -3.8125 C 4.242188 -3.414062 4.429688 -3.09375 4.765625 -2.84375 C 5.097656 -2.59375 5.503906 -2.46875 5.984375 -2.46875 C 6.429688 -2.46875 6.773438 -2.550781 7.015625 -2.71875 C 7.265625 -2.894531 7.390625 -3.125 7.390625 -3.40625 C 7.390625 -3.738281 7.210938 -3.984375 6.859375 -4.140625 C 6.515625 -4.304688 5.953125 -4.484375 5.171875 -4.671875 C 4.335938 -4.867188 3.640625 -5.070312 3.078125 -5.28125 C 2.523438 -5.5 2.046875 -5.84375 1.640625 -6.3125 C 1.242188 -6.78125 1.046875 -7.410156 1.046875 -8.203125 C 1.046875 -8.867188 1.226562 -9.476562 1.59375 -10.03125 C 1.96875 -10.582031 2.507812 -11.015625 3.21875 -11.328125 C 3.9375 -11.648438 4.789062 -11.8125 5.78125 -11.8125 C 7.238281 -11.8125 8.390625 -11.445312 9.234375 -10.71875 C 10.078125 -10 10.5625 -9.039062 10.6875 -7.84375 L 7.390625 -7.84375 C 7.335938 -8.25 7.160156 -8.570312 6.859375 -8.8125 C 6.554688 -9.050781 6.160156 -9.171875 5.671875 -9.171875 C 5.253906 -9.171875 4.9375 -9.085938 4.71875 -8.921875 C 4.5 -8.765625 4.390625 -8.546875 4.390625 -8.265625 C 4.390625 -7.929688 4.566406 -7.679688 4.921875 -7.515625 C 5.273438 -7.347656 5.828125 -7.179688 6.578125 -7.015625 C 7.441406 -6.796875 8.144531 -6.578125 8.6875 -6.359375 C 9.226562 -6.140625 9.703125 -5.789062 10.109375 -5.3125 C 10.523438 -4.832031 10.738281 -4.1875 10.75 -3.375 C 10.75 -2.695312 10.554688 -2.085938 10.171875 -1.546875 C 9.796875 -1.015625 9.25 -0.59375 8.53125 -0.28125 C 7.8125 0.0195312 6.976562 0.171875 6.03125 0.171875 Z M 6.03125 0.171875 "/></g></g></g><g fill="#ffffff" fill-opacity="1"><g transform="translate(51.307869, 21.027431)"><g/></g></g><g fill="#ffffff" fill-opacity="1"><g transform="translate(53.416575, 21.027431)"><g><path d="M 4.09375 -9.265625 C 4.550781 -10.015625 5.128906 -10.597656 5.828125 -11.015625 C 6.523438 -11.429688 7.316406 -11.640625 8.203125 -11.640625 L 7.84375 -9.6875 L 7.34375 -9.6875 C 6.351562 -9.6875 5.523438 -9.421875 4.859375 -8.890625 C 4.203125 -8.359375 3.765625 -7.46875 3.546875 -6.21875 L 2.4375 0 L 0.546875 0 L 2.5625 -11.4375 L 4.46875 -11.4375 Z M 4.09375 -9.265625 "/></g></g></g><g fill="#ffffff" fill-opacity="1"><g transform="translate(58.886577, 21.027431)"><g><path d="M 7.53125 -11.625 C 8.488281 -11.625 9.316406 -11.4375 10.015625 -11.0625 C 10.722656 -10.695312 11.257812 -10.179688 11.625 -9.515625 C 12 -8.859375 12.1875 -8.109375 12.1875 -7.265625 C 12.1875 -6.972656 12.15625 -6.617188 12.09375 -6.203125 C 12.03125 -5.835938 11.9375 -5.460938 11.8125 -5.078125 L 2.671875 -5.078125 C 2.640625 -4.796875 2.625 -4.59375 2.625 -4.46875 C 2.625 -3.507812 2.910156 -2.757812 3.484375 -2.21875 C 4.066406 -1.6875 4.828125 -1.421875 5.765625 -1.421875 C 6.585938 -1.421875 7.304688 -1.609375 7.921875 -1.984375 C 8.535156 -2.367188 9.003906 -2.882812 9.328125 -3.53125 L 11.375 -3.53125 C 10.875 -2.425781 10.101562 -1.53125 9.0625 -0.84375 C 8.03125 -0.15625 6.832031 0.1875 5.46875 0.1875 C 4.03125 0.1875 2.875 -0.222656 2 -1.046875 C 1.132812 -1.878906 0.703125 -3.015625 0.703125 -4.453125 C 0.703125 -4.847656 0.742188 -5.273438 0.828125 -5.734375 C 1.035156 -6.921875 1.457031 -7.957031 2.09375 -8.84375 C 2.738281 -9.738281 3.53125 -10.425781 4.46875 -10.90625 C 5.414062 -11.382812 6.4375 -11.625 7.53125 -11.625 Z M 10.171875 -6.453125 C 10.210938 -6.734375 10.234375 -6.988281 10.234375 -7.21875 C 10.234375 -8.113281 9.945312 -8.800781 9.375 -9.28125 C 8.8125 -9.769531 8.082031 -10.015625 7.1875 -10.015625 C 6.207031 -10.015625 5.320312 -9.695312 4.53125 -9.0625 C 3.738281 -8.4375 3.203125 -7.566406 2.921875 -6.453125 Z M 10.171875 -6.453125 "/></g></g></g><g fill="#ffffff" fill-opacity="1"><g transform="translate(69.513721, 21.027431)"><g><path d="M 4.578125 0.1875 C 3.378906 0.1875 2.394531 -0.0976562 1.625 -0.671875 C 0.863281 -1.242188 0.484375 -2.007812 0.484375 -2.96875 C 0.484375 -3.144531 0.488281 -3.273438 0.5 -3.359375 L 2.359375 -3.359375 C 2.304688 -2.765625 2.484375 -2.28125 2.890625 -1.90625 C 3.296875 -1.53125 3.890625 -1.34375 4.671875 -1.34375 C 5.453125 -1.34375 6.082031 -1.488281 6.5625 -1.78125 C 7.039062 -2.082031 7.28125 -2.503906 7.28125 -3.046875 C 7.28125 -3.503906 7.082031 -3.863281 6.6875 -4.125 C 6.300781 -4.394531 5.707031 -4.679688 4.90625 -4.984375 C 4.195312 -5.253906 3.613281 -5.503906 3.15625 -5.734375 C 2.695312 -5.972656 2.304688 -6.304688 1.984375 -6.734375 C 1.660156 -7.160156 1.5 -7.695312 1.5 -8.34375 C 1.5 -8.988281 1.679688 -9.5625 2.046875 -10.0625 C 2.421875 -10.5625 2.9375 -10.945312 3.59375 -11.21875 C 4.257812 -11.488281 5.015625 -11.625 5.859375 -11.625 C 7.035156 -11.625 8 -11.332031 8.75 -10.75 C 9.5 -10.164062 9.875 -9.398438 9.875 -8.453125 C 9.875 -8.273438 9.867188 -8.132812 9.859375 -8.03125 L 8.03125 -8.03125 L 8.0625 -8.28125 C 8.0625 -8.84375 7.847656 -9.285156 7.421875 -9.609375 C 6.992188 -9.941406 6.429688 -10.109375 5.734375 -10.109375 C 5.054688 -10.109375 4.5 -9.953125 4.0625 -9.640625 C 3.625 -9.335938 3.40625 -8.925781 3.40625 -8.40625 C 3.40625 -7.925781 3.601562 -7.546875 4 -7.265625 C 4.40625 -6.984375 5.035156 -6.675781 5.890625 -6.34375 C 6.597656 -6.0625 7.164062 -5.804688 7.59375 -5.578125 C 8.03125 -5.347656 8.398438 -5.03125 8.703125 -4.625 C 9.015625 -4.226562 9.171875 -3.722656 9.171875 -3.109375 C 9.171875 -2.441406 8.96875 -1.859375 8.5625 -1.359375 C 8.164062 -0.859375 7.617188 -0.472656 6.921875 -0.203125 C 6.234375 0.0546875 5.453125 0.1875 4.578125 0.1875 Z M 4.578125 0.1875 "/></g></g></g><g fill="#ffffff" fill-opacity="1"><g transform="translate(78.094714, 21.027431)"><g><path d="M 3.421875 -3.125 C 3.378906 -2.914062 3.359375 -2.738281 3.359375 -2.59375 C 3.359375 -2.238281 3.46875 -1.984375 3.6875 -1.828125 C 3.90625 -1.679688 4.253906 -1.609375 4.734375 -1.609375 L 6.140625 -1.609375 L 5.84375 0 L 4.140625 0 C 3.234375 0 2.550781 -0.171875 2.09375 -0.515625 C 1.644531 -0.867188 1.421875 -1.441406 1.421875 -2.234375 C 1.421875 -2.535156 1.445312 -2.832031 1.5 -3.125 L 2.6875 -9.875 L 1.234375 -9.875 L 1.5 -11.4375 L 2.984375 -11.4375 L 3.484375 -14.3125 L 5.40625 -14.3125 L 4.90625 -11.4375 L 7.875 -11.4375 L 7.59375 -9.875 L 4.609375 -9.875 Z M 3.421875 -3.125 "/></g></g></g><g fill="#ffffff" fill-opacity="1"><g transform="translate(83.376802, 21.027431)"><g><path d="M 5.578125 0.1875 C 4.617188 0.1875 3.769531 -0.0078125 3.03125 -0.40625 C 2.300781 -0.800781 1.734375 -1.359375 1.328125 -2.078125 C 0.929688 -2.796875 0.734375 -3.628906 0.734375 -4.578125 C 0.734375 -5.867188 1.03125 -7.050781 1.625 -8.125 C 2.226562 -9.207031 3.050781 -10.0625 4.09375 -10.6875 C 5.144531 -11.3125 6.320312 -11.625 7.625 -11.625 C 8.582031 -11.625 9.429688 -11.425781 10.171875 -11.03125 C 10.921875 -10.632812 11.5 -10.078125 11.90625 -9.359375 C 12.320312 -8.640625 12.53125 -7.800781 12.53125 -6.84375 C 12.53125 -5.550781 12.222656 -4.367188 11.609375 -3.296875 C 10.992188 -2.222656 10.15625 -1.375 9.09375 -0.75 C 8.039062 -0.125 6.867188 0.1875 5.578125 0.1875 Z M 5.796875 -1.421875 C 6.703125 -1.421875 7.515625 -1.664062 8.234375 -2.15625 C 8.960938 -2.65625 9.53125 -3.3125 9.9375 -4.125 C 10.351562 -4.9375 10.5625 -5.8125 10.5625 -6.75 C 10.5625 -7.800781 10.253906 -8.609375 9.640625 -9.171875 C 9.023438 -9.734375 8.257812 -10.015625 7.34375 -10.015625 C 6.4375 -10.015625 5.628906 -9.765625 4.921875 -9.265625 C 4.210938 -8.773438 3.660156 -8.117188 3.265625 -7.296875 C 2.878906 -6.484375 2.6875 -5.601562 2.6875 -4.65625 C 2.6875 -3.625 2.976562 -2.828125 3.5625 -2.265625 C 4.15625 -1.703125 4.898438 -1.421875 5.796875 -1.421875 Z M 5.796875 -1.421875 "/></g></g></g><g fill="#ffffff" fill-opacity="1"><g transform="translate(94.421533, 21.027431)"><g><path d="M 4.09375 -9.3125 C 4.601562 -9.988281 5.269531 -10.539062 6.09375 -10.96875 C 6.914062 -11.40625 7.804688 -11.625 8.765625 -11.625 C 10.128906 -11.625 11.222656 -11.210938 12.046875 -10.390625 C 12.878906 -9.578125 13.296875 -8.46875 13.296875 -7.0625 C 13.296875 -6.65625 13.253906 -6.222656 13.171875 -5.765625 C 12.960938 -4.609375 12.539062 -3.578125 11.90625 -2.671875 C 11.269531 -1.765625 10.492188 -1.0625 9.578125 -0.5625 C 8.671875 -0.0625 7.710938 0.1875 6.703125 0.1875 C 5.710938 0.1875 4.882812 -0.0234375 4.21875 -0.453125 C 3.550781 -0.890625 3.082031 -1.441406 2.8125 -2.109375 L 2.4375 0 L 0.546875 0 L 3.28125 -15.453125 L 5.171875 -15.453125 Z M 11.234375 -5.765625 C 11.285156 -6.054688 11.3125 -6.375 11.3125 -6.71875 C 11.3125 -7.738281 11.007812 -8.535156 10.40625 -9.109375 C 9.8125 -9.691406 9.039062 -9.984375 8.09375 -9.984375 C 7.40625 -9.984375 6.734375 -9.8125 6.078125 -9.46875 C 5.421875 -9.125 4.859375 -8.628906 4.390625 -7.984375 C 3.921875 -7.335938 3.613281 -6.585938 3.46875 -5.734375 C 3.40625 -5.441406 3.375 -5.125 3.375 -4.78125 C 3.375 -3.757812 3.675781 -2.953125 4.28125 -2.359375 C 4.894531 -1.773438 5.664062 -1.484375 6.59375 -1.484375 C 7.300781 -1.484375 7.976562 -1.648438 8.625 -1.984375 C 9.28125 -2.328125 9.835938 -2.820312 10.296875 -3.46875 C 10.765625 -4.125 11.078125 -4.890625 11.234375 -5.765625 Z M 11.234375 -5.765625 "/></g></g></g><g fill="#ffffff" fill-opacity="1"><g transform="translate(106.217916, 21.027431)"><g><path d="M 0.828125 -5.765625 C 1.035156 -6.929688 1.457031 -7.957031 2.09375 -8.84375 C 2.726562 -9.726562 3.5 -10.410156 4.40625 -10.890625 C 5.320312 -11.378906 6.296875 -11.625 7.328125 -11.625 C 8.328125 -11.625 9.15625 -11.40625 9.8125 -10.96875 C 10.46875 -10.539062 10.921875 -10.003906 11.171875 -9.359375 L 11.546875 -11.4375 L 13.46875 -11.4375 L 11.4375 0 L 9.515625 0 L 9.921875 -2.125 C 9.421875 -1.457031 8.757812 -0.90625 7.9375 -0.46875 C 7.113281 -0.03125 6.207031 0.1875 5.21875 0.1875 C 4.320312 0.1875 3.535156 0 2.859375 -0.375 C 2.179688 -0.757812 1.648438 -1.304688 1.265625 -2.015625 C 0.890625 -2.734375 0.703125 -3.554688 0.703125 -4.484375 C 0.703125 -4.898438 0.742188 -5.328125 0.828125 -5.765625 Z M 10.546875 -5.734375 C 10.597656 -6.023438 10.625 -6.34375 10.625 -6.6875 C 10.625 -7.695312 10.320312 -8.5 9.71875 -9.09375 C 9.113281 -9.6875 8.34375 -9.984375 7.40625 -9.984375 C 6.695312 -9.984375 6.019531 -9.8125 5.375 -9.46875 C 4.726562 -9.132812 4.175781 -8.648438 3.71875 -8.015625 C 3.257812 -7.378906 2.953125 -6.628906 2.796875 -5.765625 C 2.742188 -5.472656 2.71875 -5.148438 2.71875 -4.796875 C 2.71875 -3.765625 3.015625 -2.953125 3.609375 -2.359375 C 4.210938 -1.773438 4.976562 -1.484375 5.90625 -1.484375 C 6.613281 -1.484375 7.289062 -1.648438 7.9375 -1.984375 C 8.582031 -2.328125 9.140625 -2.820312 9.609375 -3.46875 C 10.078125 -4.125 10.390625 -4.878906 10.546875 -5.734375 Z M 10.546875 -5.734375 "/></g></g></g><g fill="#ffffff" fill-opacity="1"><g transform="translate(118.014294, 21.027431)"><g><path d="M 4.09375 -9.265625 C 4.550781 -10.015625 5.128906 -10.597656 5.828125 -11.015625 C 6.523438 -11.429688 7.316406 -11.640625 8.203125 -11.640625 L 7.84375 -9.6875 L 7.34375 -9.6875 C 6.351562 -9.6875 5.523438 -9.421875 4.859375 -8.890625 C 4.203125 -8.359375 3.765625 -7.46875 3.546875 -6.21875 L 2.4375 0 L 0.546875 0 L 2.5625 -11.4375 L 4.46875 -11.4375 Z M 4.09375 -9.265625 "/></g></g></g></svg>